<svg version="1.1" xmlns="http://www.w3.org/2000/svg" xmlns:xlink="http://www.w3.org/1999/xlink" width="482.003" height="54.55306" viewBox="0,0,482.003,54.55306"><g transform="translate(1.0015,-152.72347)"><g data-paper-data="{&quot;isPaintingLayer&quot;:true}" fill-rule="nonzero" stroke-linecap="butt" stroke-linejoin="miter" stroke-miterlimit="10" stroke-dasharray="" stroke-dashoffset="0" style="mix-blend-mode: normal"><path d="M-1.0015,207.27653v-54.55306h482.003v54.55306z" fill="#3e3e3e" stroke="none" stroke-width="0"/><path d="M214.22899,180l25.27627,-25.27627l25.27627,25.27627l-25.27627,25.27627z" fill="#fbff00" stroke="none" stroke-width="0"/><g stroke="#000000" stroke-width="0"><path d="M232.19326,195.1787c0,0 2.55924,-2.69001 2.62224,-15.43084c0.05801,-11.7344 -2.62224,-14.92657 -2.62224,-14.92657h14.624c0,0 -2.2292,2.308 -2.31967,14.92657c-0.08766,12.22759 2.31967,15.43084 2.31967,15.43084z" fill="#000000"/><path d="M224.32656,172.688c0,0 2.69001,2.55924 15.43084,2.62224c11.7344,0.05801 14.92657,-2.62224 14.92657,-2.62224v14.624c0,0 -2.308,-2.2292 -14.92657,-2.31967c-12.22759,-0.08766 -15.43084,2.31967 -15.43084,2.31967z" fill="#000000"/><path d="M225.53683,174.19412c0,0 2.47552,2.03209 14.20047,2.08211c10.79877,0.04607 13.7364,-2.08211 13.7364,-2.08211v11.61175c0,0 -2.12397,-1.77004 -13.7364,-1.84186c-11.25263,-0.0696 -14.20047,1.84186 -14.20047,1.84186z" fill="#ffffff"/><path d="M245.31113,166.03156c0,0 -2.03209,2.47552 -2.08211,14.20047c-0.04607,10.79877 2.08211,13.7364 2.08211,13.7364h-11.61174c0,0 1.77003,-2.12396 1.84186,-13.7364c0.0696,-11.25264 -1.84186,-14.20047 -1.84186,-14.20047z" fill="#ffffff"/><path d="M244.02678,166.58627c0,0 -1.58256,2.37722 -1.62151,13.63656c-0.03588,10.36994 1.62151,13.19092 1.62151,13.19092h-9.04304c0,0 1.37847,-2.03963 1.43441,-13.19091c0.0542,-10.80578 -1.43441,-13.63656 -1.43441,-13.63656z" fill="#000000"/><path d="M252.919,184.52151c0,0 -2.37723,-1.58257 -13.63656,-1.62151c-10.36994,-0.03587 -13.19091,1.62151 -13.19091,1.62151v-9.04304c0,0 2.03962,1.37847 13.19091,1.43442c10.80578,0.0542 13.63656,-1.43442 13.63656,-1.43442z" fill="#000000"/></g><text transform="translate(128.37042,169.97169) scale(0.17908,0.17908)" font-size="40" xml:space="preserve" fill="#fbff00" fill-rule="nonzero" stroke="none" stroke-width="1" stroke-linecap="butt" stroke-linejoin="miter" stroke-miterlimit="10" stroke-dasharray="" stroke-dashoffset="0" font-family="Malgun Gothic" font-weight="normal" text-anchor="start" style="mix-blend-mode: normal"><tspan x="0" dy="0">ENDORSE KAISER</tspan></text><text transform="translate(125.73146,193.2517) scale(0.17908,0.17908)" font-size="40" xml:space="preserve" fill="#fbff00" fill-rule="nonzero" stroke="none" stroke-width="1" stroke-linecap="butt" stroke-linejoin="miter" stroke-miterlimit="10" stroke-dasharray="" stroke-dashoffset="0" font-family="Malgun Gothic" font-weight="normal" text-anchor="start" style="mix-blend-mode: normal"><tspan x="0" dy="0">AND CHANCELLOR</tspan></text><text transform="translate(284.81424,168.09593) scale(0.17908,0.17908)" font-size="40" xml:space="preserve" fill="#fbff00" fill-rule="nonzero" stroke="none" stroke-width="1" stroke-linecap="butt" stroke-linejoin="miter" stroke-miterlimit="10" stroke-dasharray="" stroke-dashoffset="0" font-family="Malgun Gothic" font-weight="normal" text-anchor="start" style="mix-blend-mode: normal"><tspan x="0" dy="0">GREATER GERMAN</tspan><tspan x="0" dy="46.150000000000006px">  CONFEDERATION</tspan></text><text transform="translate(301.60627,193.2517) scale(0.17908,0.17908)" font-size="40" xml:space="preserve" fill="#fbff00" fill-rule="nonzero" stroke="none" stroke-width="1" stroke-linecap="butt" stroke-linejoin="miter" stroke-miterlimit="10" stroke-dasharray="" stroke-dashoffset="0" font-family="Malgun Gothic" font-weight="normal" text-anchor="start" style="mix-blend-mode: normal"><tspan x="0" dy="0">HERZOGIA</tspan></text></g></g></svg>